<svg width="785" height="785" viewBox="0 0 785 785" fill="none" xmlns="http://www.w3.org/2000/svg">
<path d="M361.556 0.507833C258.78 10.1718 172.419 52.3557 103.39 126.599C60.5928 172.925 28.2263 232.289 12.4265 294.108C-10.2761 383.231 -1.53254 477.109 37.5834 561.017C40.9581 568.226 46.1736 578.504 49.2415 583.719C52.3095 589.088 54.7638 594.61 54.7638 595.991C54.6104 597.525 42.3387 640.322 27.1525 691.403C12.1197 742.484 -0.151973 784.361 0.00142261 784.515C0.154819 784.668 42.0319 772.396 93.1128 757.364C144.194 742.177 186.991 729.906 188.525 729.752C189.906 729.752 195.735 732.36 201.564 735.735C227.488 750.461 264.149 764.88 295.289 772.55C435.646 807.371 579.838 764.42 680.006 657.656C779.867 551.046 811.62 394.582 760.845 258.06C731.393 178.907 678.625 112.64 606.989 64.7807C587.508 51.7421 548.239 31.8006 525.536 23.5172C504.828 15.8474 473.228 7.87084 449.758 4.18934C430.277 1.12142 378.276 -1.02613 361.556 0.507833ZM442.702 49.4412C556.675 67.2351 653.162 138.104 703.782 241.186C757.471 350.711 748.881 480.484 681.233 582.492C633.834 654.128 560.05 706.59 477.216 727.605C407.421 745.245 336.399 741.41 269.518 716.407C252.491 709.964 226.414 697.232 208.62 686.648L196.041 678.978L132.996 697.693C98.3282 707.817 69.4898 715.947 69.0296 715.486C68.5694 715.026 76.6994 686.188 86.8235 651.52L105.538 588.475L97.8681 575.896C47.7076 492.142 33.5951 398.417 57.2181 305.152C84.3692 198.389 163.368 109.266 266.757 68.769C293.295 58.4915 333.177 49.2878 363.09 46.5266C377.356 45.2995 427.363 47.1402 442.702 49.4412Z" fill="white"/>
<path d="M248.043 145.62C236.538 149.916 207.853 178.447 200.643 192.406C170.118 253.151 187.451 361.449 241.447 445.663C294.982 529.417 389.014 588.475 488.874 600.746C507.589 603.201 543.023 602.894 558.209 600.133C587.968 594.917 602.541 587.247 624.323 565.465C641.81 547.825 646.105 539.235 646.105 521.901C646.105 502.113 645.031 500.579 596.405 451.952C568.794 424.341 551.767 408.234 547.318 406.087C533.973 399.337 515.719 399.491 502.373 406.24C499.305 407.774 490.102 415.444 482.278 422.96C466.785 437.686 460.496 441.368 450.679 441.368C437.64 441.368 434.265 438.607 391.928 394.736C369.992 371.88 350.971 351.018 349.898 348.257C346.983 341.507 347.29 330.309 350.358 324.327C351.738 321.566 358.795 313.129 366.158 305.612C382.878 288.432 386.406 281.683 387.326 266.497C387.786 257.293 387.326 253.151 384.565 245.788C381.344 237.198 377.969 233.516 337.166 192.713C296.823 152.37 292.528 148.535 284.398 145.467C272.893 141.325 259.394 141.325 248.043 145.62ZM305.259 224.773C325.201 245.021 341.614 262.355 341.614 263.429C341.614 264.656 335.478 271.865 327.962 279.382C320.599 287.052 312.622 296.716 310.475 301.011C298.357 325.094 298.663 351.171 311.549 373.874C315.537 381.083 354.039 422.807 393.002 462.23C409.875 479.41 426.749 486.466 450.525 486.466C475.529 486.466 489.335 480.33 511.884 458.855L525.843 445.51L560.357 479.87C579.378 498.738 596.405 516.225 598.246 518.679L601.467 523.128L588.428 535.553C577.077 546.751 574.316 548.438 564.805 551.506C550.233 556.108 531.058 557.795 508.509 556.261C444.39 552.12 376.282 522.361 327.809 477.416C279.182 432.318 246.969 372.493 234.851 304.845C231.323 284.904 231.169 246.555 234.697 232.289C236.078 226.614 238.839 219.097 240.526 215.416C244.515 207.592 262.922 188.265 266.297 188.265C267.677 188.265 285.164 204.678 305.259 224.773Z" fill="white"/>
</svg>
