<svg width="786" height="786" viewBox="0 0 786 786" fill="none" xmlns="http://www.w3.org/2000/svg">
<path d="M187.224 1.68737C161.607 4.75529 131.388 14.726 108.378 27.7647C48.8606 61.972 9.59121 121.49 2.07481 189.137C-0.226129 209.539 -0.226129 575.849 2.07481 596.25C12.9659 694.884 90.8911 772.809 189.525 783.7C209.926 786.001 576.236 786.001 596.638 783.7C695.271 772.809 773.196 694.884 784.087 596.25C786.388 575.849 786.388 209.539 784.087 189.137C773.196 90.5036 695.271 12.5785 596.638 1.68737C578.537 -0.30678 204.864 -0.30678 187.224 1.68737ZM612.591 50.9275C644.497 59.671 669.04 73.6301 690.516 95.2589C712.145 116.734 726.104 141.278 735.001 173.184L738.989 187.91V392.694V597.477L735.001 612.203C726.104 644.11 712.145 668.653 690.516 690.129C669.04 711.757 644.497 725.716 612.591 734.613L597.865 738.602H393.081H188.298L173.572 734.613C141.665 725.716 117.122 711.757 95.6463 690.129C74.0175 668.653 60.0585 644.11 51.1615 612.203L47.1732 597.477V392.694V187.91L51.1615 173.184C60.0585 141.278 74.0175 116.734 95.493 95.2589C120.957 69.7952 154.55 52.9216 189.831 47.7062C194.894 46.9392 288.772 46.479 398.45 46.6324L597.865 46.7858L612.591 50.9275Z" fill="white"/>
<path d="M605.535 102.315C568.106 107.531 542.642 143.886 551.693 179.167C557.982 204.17 573.935 219.97 598.785 226.413C640.969 237.15 682.386 198.955 675.33 155.85C671.495 131.767 653.854 111.519 630.845 104.616C624.096 102.622 611.67 101.548 605.535 102.315ZM622.715 151.249C630.998 156.464 632.379 169.196 625.476 176.405C619.8 182.235 612.898 183.615 605.841 180.24C595.104 175.178 592.803 161.066 601.393 153.089C607.682 147.107 615.045 146.493 622.715 151.249Z" fill="white"/>
<path d="M363.476 180.24C278.648 191.898 207.012 255.711 185.383 339.312C166.362 412.482 187.684 489.793 241.833 543.942C326.201 628.31 459.962 628.31 544.33 543.942C628.697 459.574 628.697 325.813 544.33 241.445C495.856 193.126 430.97 171.037 363.476 180.24ZM417.625 226.259C454.44 231.781 485.732 247.581 511.963 273.812C578.077 339.772 578.077 445.615 511.963 511.576C446.003 577.689 340.16 577.689 274.199 511.576C208.086 445.615 208.086 339.772 274.199 273.812C312.395 235.616 364.856 218.129 417.625 226.259Z" fill="white"/>
</svg>
